<svg width="16" height="16" viewBox="0 0 16 16" fill="none" xmlns="http://www.w3.org/2000/svg">
<g id="package_2_24dp_5F6368_FILL0_wght400_GRAD0_opsz24">
<path id="Vector" d="M7.33333 12.95V8.38333L3.33333 6.06666V10.6333L7.33333 12.95ZM8.66667 12.95L12.6667 10.6333V6.06666L8.66667 8.38333V12.95ZM7.33333 14.4833L2.66667 11.8C2.45556 11.6778 2.29167 11.5167 2.175 11.3167C2.05833 11.1167 2 10.8944 2 10.65V5.34999C2 5.10555 2.05833 4.88333 2.175 4.68333C2.29167 4.48333 2.45556 4.32222 2.66667 4.19999L7.33333 1.51666C7.54444 1.39444 7.76667 1.33333 8 1.33333C8.23333 1.33333 8.45556 1.39444 8.66667 1.51666L13.3333 4.19999C13.5444 4.32222 13.7083 4.48333 13.825 4.68333C13.9417 4.88333 14 5.10555 14 5.34999V10.65C14 10.8944 13.9417 11.1167 13.825 11.3167C13.7083 11.5167 13.5444 11.6778 13.3333 11.8L8.66667 14.4833C8.45556 14.6055 8.23333 14.6667 8 14.6667C7.76667 14.6667 7.54444 14.6055 7.33333 14.4833ZM10.6667 5.68333L11.95 4.94999L8 2.66666L6.7 3.41666L10.6667 5.68333ZM8 7.23333L9.3 6.48333L5.35 4.19999L4.05 4.94999L8 7.23333Z" fill="#949494"/>
</g>
</svg>
