<svg width="16" height="16" viewBox="0 0 16 16" fill="none" xmlns="http://www.w3.org/2000/svg">
<g id="box_24dp_5F6368_FILL0_wght400_GRAD0_opsz24 1">
<path id="Vector" d="M3.33333 5.33333V12.6667H12.6667V5.33333H10.6667V10.6667L8 9.33333L5.33333 10.6667V5.33333H3.33333ZM3.33333 14C2.96667 14 2.65278 13.8694 2.39167 13.6083C2.13056 13.3472 2 13.0333 2 12.6667V4.35C2 4.19444 2.025 4.04444 2.075 3.9C2.125 3.75556 2.2 3.62222 2.3 3.5L3.13333 2.48333C3.25556 2.32778 3.40833 2.20833 3.59167 2.125C3.775 2.04167 3.96667 2 4.16667 2H11.8333C12.0333 2 12.225 2.04167 12.4083 2.125C12.5917 2.20833 12.7444 2.32778 12.8667 2.48333L13.7 3.5C13.8 3.62222 13.875 3.75556 13.925 3.9C13.975 4.04444 14 4.19444 14 4.35V12.6667C14 13.0333 13.8694 13.3472 13.6083 13.6083C13.3472 13.8694 13.0333 14 12.6667 14H3.33333ZM3.6 4H12.4L11.8333 3.33333H4.16667L3.6 4ZM6.66667 5.33333V8.5L8 7.83333L9.33333 8.5V5.33333H6.66667Z" fill="#242424"/>
</g>
</svg>
