<svg width="16" height="17" viewBox="0 0 16 17" fill="none" xmlns="http://www.w3.org/2000/svg">
<g id="package_2_24dp_5F6368_FILL0_wght400_GRAD0_opsz24">
<path id="Vector" d="M7.33333 13.45V8.88333L3.33333 6.56667V11.1333L7.33333 13.45ZM8.66667 13.45L12.6667 11.1333V6.56667L8.66667 8.88333V13.45ZM7.33333 14.9833L2.66667 12.3C2.45556 12.1778 2.29167 12.0167 2.175 11.8167C2.05833 11.6167 2 11.3944 2 11.15V5.85C2 5.60555 2.05833 5.38333 2.175 5.18333C2.29167 4.98333 2.45556 4.82222 2.66667 4.7L7.33333 2.01667C7.54444 1.89444 7.76667 1.83333 8 1.83333C8.23333 1.83333 8.45556 1.89444 8.66667 2.01667L13.3333 4.7C13.5444 4.82222 13.7083 4.98333 13.825 5.18333C13.9417 5.38333 14 5.60555 14 5.85V11.15C14 11.3944 13.9417 11.6167 13.825 11.8167C13.7083 12.0167 13.5444 12.1778 13.3333 12.3L8.66667 14.9833C8.45556 15.1056 8.23333 15.1667 8 15.1667C7.76667 15.1667 7.54444 15.1056 7.33333 14.9833ZM10.6667 6.18333L11.95 5.45L8 3.16667L6.7 3.91667L10.6667 6.18333ZM8 7.73333L9.3 6.98333L5.35 4.7L4.05 5.45L8 7.73333Z" fill="#242424"/>
</g>
</svg>
