<svg width="14" height="12" viewBox="0 0 14 12" fill="none" xmlns="http://www.w3.org/2000/svg">
<path id="Vector" d="M1.3 12V3.4L0 0.566667L1.2 0L2.76667 3.36667H10.5L12.0667 0L13.2667 0.566667L11.9667 3.4V12H1.3ZM5.3 7.33333H7.96667C8.15556 7.33333 8.31389 7.26944 8.44167 7.14167C8.56944 7.01389 8.63333 6.85556 8.63333 6.66667C8.63333 6.47778 8.56944 6.31944 8.44167 6.19167C8.31389 6.06389 8.15556 6 7.96667 6H5.3C5.11111 6 4.95278 6.06389 4.825 6.19167C4.69722 6.31944 4.63333 6.47778 4.63333 6.66667C4.63333 6.85556 4.69722 7.01389 4.825 7.14167C4.95278 7.26944 5.11111 7.33333 5.3 7.33333ZM2.63333 10.6667H10.6333V4.7H2.63333V10.6667Z" fill="#242424"/>
</svg>
