<svg width="25" height="24" viewBox="0 0 25 24" fill="none" xmlns="http://www.w3.org/2000/svg">
<g id="qr_code_scanner_24dp_5F6368_FILL0_wght400_GRAD0_opsz24 1">
<path id="Vector" d="M3.5 7V3H7.5V4H4.5V7H3.5ZM3.5 21V17.1143H4.5V20.0286H7.5V21H3.5ZM17.5 21V20.0286H20.5V17.1143H21.5V21H17.5ZM20.5 6.42877V4H17.5L17.4665 3H21.5V6.42877H20.5Z" fill="#3A3119"/>
<path id="Vector_2" d="M11.7222 17.94V12.46L7.05556 9.68V15.16L11.7222 17.94ZM13.2778 17.94L17.9444 15.16V9.68L13.2778 12.46V17.94ZM11.7222 19.78L6.27778 16.56C6.03148 16.4133 5.84028 16.22 5.70417 15.98C5.56806 15.74 5.5 15.4733 5.5 15.18V8.82C5.5 8.52667 5.56806 8.26 5.70417 8.02C5.84028 7.78 6.03148 7.58667 6.27778 7.44L11.7222 4.22C11.9685 4.07333 12.2278 4 12.5 4C12.7722 4 13.0315 4.07333 13.2778 4.22L18.7222 7.44C18.9685 7.58667 19.1597 7.78 19.2958 8.02C19.4319 8.26 19.5 8.52667 19.5 8.82V15.18C19.5 15.4733 19.4319 15.74 19.2958 15.98C19.1597 16.22 18.9685 16.4133 18.7222 16.56L13.2778 19.78C13.0315 19.9267 12.7722 20 12.5 20C12.2278 20 11.9685 19.9267 11.7222 19.78ZM15.6111 9.22L17.1083 8.34L12.5 5.6L10.9833 6.5L15.6111 9.22ZM12.5 11.08L14.0167 10.18L9.40833 7.44L7.89167 8.34L12.5 11.08Z" fill="#3A3119"/>
</g>
</svg>
