<svg width="75" height="30" viewBox="0 0 75 30" fill="none" xmlns="http://www.w3.org/2000/svg">
<g id="Vector">
<path d="M13.6571 0C13.9596 0 14.2049 0.245284 14.2049 0.547857C14.2049 0.85043 13.9596 1.09571 13.6571 1.09571H2.32146C1.76918 1.09571 1.32146 1.54343 1.32146 2.09571V4.94286C1.32146 5.49514 1.76918 5.94286 2.32146 5.94286H13.2049C13.7572 5.94286 14.2049 6.39057 14.2049 6.94286V12C14.2049 12.5523 13.7572 13 13.2049 13H0.683478C0.380904 13 0.13562 12.7547 0.13562 12.4521C0.13562 12.1496 0.380904 11.9043 0.683477 11.9043H12.0191C12.5714 11.9043 13.0191 11.4566 13.0191 10.9043V8.05714C13.0191 7.50486 12.5714 7.05714 12.0191 7.05714H1.13562C0.583335 7.05714 0.13562 6.60943 0.13562 6.05714V1C0.13562 0.447715 0.583335 0 1.13562 0H13.6571Z" fill="#3A3119"/>
<path d="M29.7323 0C30.0349 0 30.2802 0.245284 30.2802 0.547857C30.2802 0.85043 30.0349 1.09571 29.7323 1.09571H24.8485C24.2962 1.09571 23.8485 1.54343 23.8485 2.09571V12.397C23.8485 12.73 23.5785 13 23.2455 13C22.9125 13 22.6426 12.73 22.6426 12.397V2.09571C22.6426 1.54343 22.1948 1.09571 21.6426 1.09571H16.7587C16.4562 1.09571 16.2109 0.85043 16.2109 0.547857C16.2109 0.245284 16.4562 0 16.7587 0H29.7323Z" fill="#3A3119"/>
<path d="M45.3554 0C45.9077 0 46.3554 0.447715 46.3554 1V12.4071C46.3554 12.7345 46.09 13 45.7625 13C45.435 13 45.1696 12.7345 45.1696 12.4071V8.05714C45.1696 7.50486 44.7219 7.05714 44.1696 7.05714H34.472C33.9197 7.05714 33.472 7.50486 33.472 8.05714V12.4071C33.472 12.7345 33.2065 13 32.8791 13C32.5516 13 32.2861 12.7345 32.2861 12.4071V1C32.2861 0.447715 32.7339 0 33.2861 0H45.3554ZM33.472 4.94286C33.472 5.49514 33.9197 5.94286 34.472 5.94286H44.1696C44.7219 5.94286 45.1696 5.49514 45.1696 4.94286V2.09572C45.1696 1.54343 44.7219 1.09571 44.1696 1.09571H34.472C33.9197 1.09571 33.472 1.54343 33.472 2.09571V4.94286Z" fill="#3A3119"/>
<path d="M61.8828 0C62.1854 0 62.4307 0.245284 62.4307 0.547857C62.4307 0.85043 62.1854 1.09571 61.8828 1.09571H50.5472C49.995 1.09571 49.5472 1.54343 49.5472 2.09571V10.9043C49.5472 11.4566 49.995 11.9043 50.5472 11.9043H61.8828C62.1854 11.9043 62.4307 12.1496 62.4307 12.4521C62.4307 12.7547 62.1854 13 61.8828 13H49.3614C48.8091 13 48.3614 12.5523 48.3614 12V1C48.3614 0.447715 48.8091 0 49.3614 0H61.8828Z" fill="#3A3119"/>
<path d="M74.6802 0.359235C74.9257 0.586045 74.9257 0.973955 74.6802 1.20077L69.3426 6.13277C69.1283 6.33072 69.1283 6.66928 69.3426 6.86723L74.6802 11.7992C74.9257 12.026 74.9257 12.414 74.6802 12.6408C74.4607 12.8436 74.1222 12.8436 73.9027 12.6408L65.864 5.21307C65.7359 5.09472 65.5283 5.18557 65.5283 5.35996V12.4071C65.5283 12.7345 65.2628 13 64.9354 13C64.6079 13 64.3425 12.7345 64.3425 12.4071V0.592922C64.3425 0.26546 64.6079 0 64.9354 0C65.2628 0 65.5283 0.26546 65.5283 0.592922V2.90532C65.5283 3.18425 65.6448 3.4505 65.8497 3.63979L67.6938 5.34376C67.9237 5.55619 68.2783 5.55619 68.5082 5.34376L73.9027 0.359237C74.1222 0.15641 74.4607 0.156409 74.6802 0.359235Z" fill="#3A3119"/>
<path d="M13.6571 17C13.9596 17 14.2049 17.2453 14.2049 17.5479C14.2049 17.8505 13.9596 18.0958 13.6571 18.0958H8.77324C8.22095 18.0958 7.77324 18.5435 7.77324 19.0958V29.397C7.77324 29.73 7.50328 30 7.17027 30C6.83725 30 6.5673 29.73 6.5673 29.397V19.0958C6.5673 18.5435 6.11958 18.0958 5.5673 18.0958H0.683476C0.380904 18.0958 0.13562 17.8505 0.13562 17.5479C0.13562 17.2453 0.380903 17 0.683475 17H13.6571Z" fill="#3A3119"/>
<path d="M29.2802 17C29.8324 17 30.2802 17.4478 30.2802 18V29.4071C30.2802 29.7345 30.0147 30 29.6872 30C29.3598 30 29.0943 29.7345 29.0943 29.4071V25.0572C29.0943 24.5049 28.6466 24.0572 28.0943 24.0572H18.3967C17.8444 24.0572 17.3967 24.5049 17.3967 25.0572V29.4071C17.3967 29.7345 17.1313 30 16.8038 30C16.4763 30 16.2109 29.7345 16.2109 29.4071V18C16.2109 17.4478 16.6586 17 17.2109 17H29.2802ZM17.3967 21.9429C17.3967 22.4952 17.8444 22.9429 18.3967 22.9429H28.0943C28.6466 22.9429 29.0943 22.4952 29.0943 21.9429V19.0958C29.0943 18.5435 28.6466 18.0958 28.0943 18.0958H18.3967C17.8444 18.0958 17.3967 18.5435 17.3967 19.0958V21.9429Z" fill="#3A3119"/>
<path d="M32.8791 17C33.2065 17 33.472 17.2655 33.472 17.593V27.9043C33.472 28.4566 33.9197 28.9043 34.472 28.9043H45.8076C46.1101 28.9043 46.3554 29.1496 46.3554 29.4521C46.3554 29.7547 46.1101 30 45.8076 30H33.2861C32.7339 30 32.2861 29.5523 32.2861 29V17.593C32.2861 17.2655 32.5516 17 32.8791 17Z" fill="#3A3119"/>
<path d="M48.9543 17C49.2818 17 49.5472 17.2655 49.5472 17.593V27.9043C49.5472 28.4566 49.9949 28.9043 50.5472 28.9043H61.8828C62.1854 28.9043 62.4307 29.1496 62.4307 29.4521C62.4307 29.7547 62.1854 30 61.8828 30H49.3614C48.8091 30 48.3614 29.5523 48.3614 29V17.593C48.3614 17.2655 48.6269 17 48.9543 17Z" fill="#3A3119"/>
<path d="M74.6803 17.3592C74.9257 17.586 74.9257 17.974 74.6803 18.2008L69.0253 23.4259C68.8204 23.6152 68.7039 23.8814 68.7039 24.1604V29.397C68.7039 29.73 68.434 30 68.101 30C67.768 30 67.498 29.73 67.498 29.397V24.1604C67.498 23.8814 67.3815 23.6152 67.1767 23.4259L61.5217 18.2008C61.2762 17.974 61.2762 17.586 61.5217 17.3592C61.7412 17.1564 62.0798 17.1564 62.2993 17.3592L67.4223 22.0929C67.8055 22.447 68.3965 22.447 68.7796 22.0929L73.9027 17.3592C74.1222 17.1564 74.4607 17.1564 74.6803 17.3592Z" fill="#3A3119"/>
<path d="M13.6571 0C13.9596 0 14.2049 0.245284 14.2049 0.547857C14.2049 0.85043 13.9596 1.09571 13.6571 1.09571H2.32146C1.76918 1.09571 1.32146 1.54343 1.32146 2.09571V4.94286C1.32146 5.49514 1.76918 5.94286 2.32146 5.94286H13.2049C13.7572 5.94286 14.2049 6.39057 14.2049 6.94286V12C14.2049 12.5523 13.7572 13 13.2049 13H0.683478C0.380904 13 0.13562 12.7547 0.13562 12.4521C0.13562 12.1496 0.380904 11.9043 0.683477 11.9043H12.0191C12.5714 11.9043 13.0191 11.4566 13.0191 10.9043V8.05714C13.0191 7.50486 12.5714 7.05714 12.0191 7.05714H1.13562C0.583335 7.05714 0.13562 6.60943 0.13562 6.05714V1C0.13562 0.447715 0.583335 0 1.13562 0H13.6571Z" stroke="#3A3119"/>
<path d="M29.7323 0C30.0349 0 30.2802 0.245284 30.2802 0.547857C30.2802 0.85043 30.0349 1.09571 29.7323 1.09571H24.8485C24.2962 1.09571 23.8485 1.54343 23.8485 2.09571V12.397C23.8485 12.73 23.5785 13 23.2455 13C22.9125 13 22.6426 12.73 22.6426 12.397V2.09571C22.6426 1.54343 22.1948 1.09571 21.6426 1.09571H16.7587C16.4562 1.09571 16.2109 0.85043 16.2109 0.547857C16.2109 0.245284 16.4562 0 16.7587 0H29.7323Z" stroke="#3A3119"/>
<path d="M45.3554 0C45.9077 0 46.3554 0.447715 46.3554 1V12.4071C46.3554 12.7345 46.09 13 45.7625 13C45.435 13 45.1696 12.7345 45.1696 12.4071V8.05714C45.1696 7.50486 44.7219 7.05714 44.1696 7.05714H34.472C33.9197 7.05714 33.472 7.50486 33.472 8.05714V12.4071C33.472 12.7345 33.2065 13 32.8791 13C32.5516 13 32.2861 12.7345 32.2861 12.4071V1C32.2861 0.447715 32.7339 0 33.2861 0H45.3554ZM33.472 4.94286C33.472 5.49514 33.9197 5.94286 34.472 5.94286H44.1696C44.7219 5.94286 45.1696 5.49514 45.1696 4.94286V2.09572C45.1696 1.54343 44.7219 1.09571 44.1696 1.09571H34.472C33.9197 1.09571 33.472 1.54343 33.472 2.09571V4.94286Z" stroke="#3A3119"/>
<path d="M61.8828 0C62.1854 0 62.4307 0.245284 62.4307 0.547857C62.4307 0.85043 62.1854 1.09571 61.8828 1.09571H50.5472C49.995 1.09571 49.5472 1.54343 49.5472 2.09571V10.9043C49.5472 11.4566 49.995 11.9043 50.5472 11.9043H61.8828C62.1854 11.9043 62.4307 12.1496 62.4307 12.4521C62.4307 12.7547 62.1854 13 61.8828 13H49.3614C48.8091 13 48.3614 12.5523 48.3614 12V1C48.3614 0.447715 48.8091 0 49.3614 0H61.8828Z" stroke="#3A3119"/>
<path d="M74.6802 0.359235C74.9257 0.586045 74.9257 0.973955 74.6802 1.20077L69.3426 6.13277C69.1283 6.33072 69.1283 6.66928 69.3426 6.86723L74.6802 11.7992C74.9257 12.026 74.9257 12.414 74.6802 12.6408C74.4607 12.8436 74.1222 12.8436 73.9027 12.6408L65.864 5.21307C65.7359 5.09472 65.5283 5.18557 65.5283 5.35996V12.4071C65.5283 12.7345 65.2628 13 64.9354 13C64.6079 13 64.3425 12.7345 64.3425 12.4071V0.592922C64.3425 0.26546 64.6079 0 64.9354 0C65.2628 0 65.5283 0.26546 65.5283 0.592922V2.90532C65.5283 3.18425 65.6448 3.4505 65.8497 3.63979L67.6938 5.34376C67.9237 5.55619 68.2783 5.55619 68.5082 5.34376L73.9027 0.359237C74.1222 0.15641 74.4607 0.156409 74.6802 0.359235Z" stroke="#3A3119"/>
<path d="M13.6571 17C13.9596 17 14.2049 17.2453 14.2049 17.5479C14.2049 17.8505 13.9596 18.0958 13.6571 18.0958H8.77324C8.22095 18.0958 7.77324 18.5435 7.77324 19.0958V29.397C7.77324 29.73 7.50328 30 7.17027 30C6.83725 30 6.5673 29.73 6.5673 29.397V19.0958C6.5673 18.5435 6.11958 18.0958 5.5673 18.0958H0.683476C0.380904 18.0958 0.13562 17.8505 0.13562 17.5479C0.13562 17.2453 0.380903 17 0.683475 17H13.6571Z" stroke="#3A3119"/>
<path d="M29.2802 17C29.8324 17 30.2802 17.4478 30.2802 18V29.4071C30.2802 29.7345 30.0147 30 29.6872 30C29.3598 30 29.0943 29.7345 29.0943 29.4071V25.0572C29.0943 24.5049 28.6466 24.0572 28.0943 24.0572H18.3967C17.8444 24.0572 17.3967 24.5049 17.3967 25.0572V29.4071C17.3967 29.7345 17.1313 30 16.8038 30C16.4763 30 16.2109 29.7345 16.2109 29.4071V18C16.2109 17.4478 16.6586 17 17.2109 17H29.2802ZM17.3967 21.9429C17.3967 22.4952 17.8444 22.9429 18.3967 22.9429H28.0943C28.6466 22.9429 29.0943 22.4952 29.0943 21.9429V19.0958C29.0943 18.5435 28.6466 18.0958 28.0943 18.0958H18.3967C17.8444 18.0958 17.3967 18.5435 17.3967 19.0958V21.9429Z" stroke="#3A3119"/>
<path d="M32.8791 17C33.2065 17 33.472 17.2655 33.472 17.593V27.9043C33.472 28.4566 33.9197 28.9043 34.472 28.9043H45.8076C46.1101 28.9043 46.3554 29.1496 46.3554 29.4521C46.3554 29.7547 46.1101 30 45.8076 30H33.2861C32.7339 30 32.2861 29.5523 32.2861 29V17.593C32.2861 17.2655 32.5516 17 32.8791 17Z" stroke="#3A3119"/>
<path d="M48.9543 17C49.2818 17 49.5472 17.2655 49.5472 17.593V27.9043C49.5472 28.4566 49.9949 28.9043 50.5472 28.9043H61.8828C62.1854 28.9043 62.4307 29.1496 62.4307 29.4521C62.4307 29.7547 62.1854 30 61.8828 30H49.3614C48.8091 30 48.3614 29.5523 48.3614 29V17.593C48.3614 17.2655 48.6269 17 48.9543 17Z" stroke="#3A3119"/>
<path d="M74.6803 17.3592C74.9257 17.586 74.9257 17.974 74.6803 18.2008L69.0253 23.4259C68.8204 23.6152 68.7039 23.8814 68.7039 24.1604V29.397C68.7039 29.73 68.434 30 68.101 30C67.768 30 67.498 29.73 67.498 29.397V24.1604C67.498 23.8814 67.3815 23.6152 67.1767 23.4259L61.5217 18.2008C61.2762 17.974 61.2762 17.586 61.5217 17.3592C61.7412 17.1564 62.0798 17.1564 62.2993 17.3592L67.4223 22.0929C67.8055 22.447 68.3965 22.447 68.7796 22.0929L73.9027 17.3592C74.1222 17.1564 74.4607 17.1564 74.6803 17.3592Z" stroke="#3A3119"/>
</g>
</svg>
