<svg width="24" height="24" viewBox="0 0 24 24" fill="none" xmlns="http://www.w3.org/2000/svg">
<g id="package_2_24dp_5F6368_FILL0_wght400_GRAD0_opsz24">
<path id="Vector" d="M11.2222 17.94V12.46L6.55556 9.68V15.16L11.2222 17.94ZM12.7778 17.94L17.4444 15.16V9.68L12.7778 12.46V17.94ZM11.2222 19.78L5.77778 16.56C5.53148 16.4133 5.34028 16.22 5.20417 15.98C5.06806 15.74 5 15.4733 5 15.18V8.82C5 8.52667 5.06806 8.26 5.20417 8.02C5.34028 7.78 5.53148 7.58667 5.77778 7.44L11.2222 4.22C11.4685 4.07333 11.7278 4 12 4C12.2722 4 12.5315 4.07333 12.7778 4.22L18.2222 7.44C18.4685 7.58667 18.6597 7.78 18.7958 8.02C18.9319 8.26 19 8.52667 19 8.82V15.18C19 15.4733 18.9319 15.74 18.7958 15.98C18.6597 16.22 18.4685 16.4133 18.2222 16.56L12.7778 19.78C12.5315 19.9267 12.2722 20 12 20C11.7278 20 11.4685 19.9267 11.2222 19.78ZM15.1111 9.22L16.6083 8.34L12 5.6L10.4833 6.5L15.1111 9.22ZM12 11.08L13.5167 10.18L8.90833 7.44L7.39167 8.34L12 11.08Z" fill="#6A4874"/>
<path id="Vector_2" d="M1 15.5V14.5625H2.28906L2.10156 14.3984C1.69531 14.0391 1.41016 13.6289 1.24609 13.168C1.08203 12.707 1 12.2422 1 11.7734C1 10.9062 1.25977 10.1348 1.7793 9.45898C2.29883 8.7832 2.97656 8.33594 3.8125 8.11719V9.10156C3.25 9.30469 2.79688 9.65039 2.45312 10.1387C2.10938 10.627 1.9375 11.1719 1.9375 11.7734C1.9375 12.125 2.00391 12.4668 2.13672 12.7988C2.26953 13.1309 2.47656 13.4375 2.75781 13.7188L2.875 13.8359V12.6875H3.8125V15.5H1Z" fill="#6A4874"/>
<path id="Vector_3" d="M23 8.11719L23 9.05469L21.7109 9.05469L21.8984 9.21875C22.3047 9.57812 22.5898 9.98828 22.7539 10.4492C22.918 10.9102 23 11.375 23 11.8438C23 12.7109 22.7402 13.4824 22.2207 14.1582C21.7012 14.834 21.0234 15.2812 20.1875 15.5L20.1875 14.5156C20.75 14.3125 21.2031 13.9668 21.5469 13.4785C21.8906 12.9902 22.0625 12.4453 22.0625 11.8437C22.0625 11.4922 21.9961 11.1504 21.8633 10.8184C21.7305 10.4863 21.5234 10.1797 21.2422 9.89844L21.125 9.78125L21.125 10.9297L20.1875 10.9297L20.1875 8.11719L23 8.11719Z" fill="#6A4874"/>
</g>
</svg>
